<?xml version="1.0" encoding="utf-8"?>
<!-- Generator: Adobe Illustrator 24.2.0, SVG Export Plug-In . SVG Version: 6.00 Build 0)  -->
<svg version="1.1" id="Layer_1" xmlns="http://www.w3.org/2000/svg" xmlns:xlink="http://www.w3.org/1999/xlink" x="0px" y="0px"
	 viewBox="0 0 841.9 595.3" style="enable-background:new 0 0 841.9 595.3;" xml:space="preserve">
<style type="text/css">
	.st0{fill:#344A59;}
	.st1{fill:#4F4D85;}
	.st2{fill:#B25842;}
	.st3{fill:#8D4768;}
	.st4{fill:#F49714;}
	.st5{fill:#3F807B;}
	.st6{fill:#BD321D;}
</style>
<g id="Group_2317" transform="translate(-1462.333 -1113.854)">
	<g id="Group_2317-2" transform="translate(1462.333 1176.7)">
		<path id="Path_13598" class="st0" d="M511.5,413.9c1.9-1.7,3.5-3.7,4.5-6c1.3-3.1,2-6.4,2-9.7c0.1-1.1,0.1-2.3,0.1-3.5
			c0-1.2,0-2.4,0-3.7v-35.1H502c-3.1,0-6.1,0.6-9,1.8c-2.8,1.1-5.4,2.8-7.6,5c-2.2,2.2-4,4.9-5.2,7.8c-1.3,3.2-2,6.7-1.9,10.2
			c0,2.9,0.4,5.8,1.1,8.6c0.7,2.9,1.7,5.7,2.9,8.4h25.5c0,2.7-0.3,5.4-1.1,7.9c-0.5,1.7-1.5,3.3-2.9,4.6c-1.3,1.1-2.8,1.8-4.5,2.1
			c-2,0.4-4,0.5-6,0.5c-0.9,0-2,0-3.2-0.1c-1.1-0.1-2.2-0.3-3.3-0.6c-0.2,0.8-0.4,1.6-0.7,2.4c2,1.2,4.1,2,6.3,2.5
			c2.4,0.6,4.8,0.9,7.3,0.9c2,0,4-0.3,6-0.9C507.8,416.4,509.8,415.3,511.5,413.9z M507.7,390.3h-16.5c-0.9-1.8-1.5-3.8-1.9-5.8
			c-0.4-1.9-0.6-3.8-0.6-5.8c-0.1-2.5,0.4-5,1.3-7.3c0.8-1.8,1.8-3.3,3.2-4.7c1.2-1.1,2.6-2,4.1-2.5c1.3-0.5,2.6-0.7,4-0.8h6.4
			L507.7,390.3z M424.2,339.4l-8.3,10h16.7L424.2,339.4z M452.5,349.4l-8.3-10l-8.3,10H452.5z M207.5,339.4l-8.3,10h16.7
			L207.5,339.4z M434.1,327.8l-8.3,10h16.7L434.1,327.8z M467.7,397.6v-41.7h-10.6v34.4l-8.2-0.1c-1.5,0-3-0.3-4.3-1
			c-1.2-0.6-2.1-1.4-2.8-2.5c-0.7-1.2-1.2-2.5-1.5-3.8c-0.3-1.6-0.5-3.2-0.5-4.8V362h-10.5v21.9c0.1,1.7-0.2,3.4-0.9,4.9
			c-0.9,1.1-2.2,1.6-3.6,1.5h-4.7c-1.5,0-3-0.3-4.3-1c-1.2-0.6-2.1-1.4-2.8-2.5c-0.7-1.2-1.2-2.5-1.5-3.8c-0.3-1.6-0.5-3.2-0.5-4.8
			v-10h-10.4v15.9c0.1,1.7-0.2,3.4-0.9,4.9c-0.9,1.1-2.3,1.6-3.7,1.5h-83.3c-1.5,0.1-3-0.2-4.4-0.8c-1.1-0.6-2.1-1.4-2.8-2.5
			c-0.8-1.1-1.3-2.4-1.6-3.7c-0.3-1.5-0.5-3.1-0.5-4.7V356h-10.5V384c0,1.2-0.1,2.5-0.4,3.7c-0.2,0.7-0.6,1.4-1.2,1.9
			c-0.6,0.4-1.4,0.7-2.2,0.7c-0.9,0.1-182.3,0.1-182.3,0.1v7.3h182.9c2,0.1,4-0.2,6-0.8c1.5-0.4,2.8-1.2,4-2.2
			c1.1-0.9,1.9-2.1,2.4-3.4c0.5-1.4,0.9-2.9,1.1-4.4c0.5,2.9,1.9,5.6,3.9,7.7c1.6,1.7,3.8,2.7,6.1,2.9c0.4,0.1,0.7,0.1,1.1,0.1h83
			c2,0,4-0.2,5.9-0.8c1.5-0.4,2.8-1.2,4-2.3c1-1,1.9-2.2,2.4-3.5c0.6-1.5,1-3,1.1-4.6c0.5,3,1.9,5.7,3.9,7.9c2.1,2.1,5,3.3,7.9,3.1
			h3.6c3.6,0.4,7.1-0.8,9.9-3.1c2-2.2,3.3-5,3.6-8c0.5,3,1.9,5.7,3.9,7.9c2.1,2.1,5,3.3,7.9,3.1L467.7,397.6z M558.2,390.3
			c-2.8,0.2-5.4-1.1-7-3.3c-1.5-2.7-2.2-5.7-2.1-8.8v-22.2h-10.6v39.5c0.1,3-0.2,5.9-0.8,8.8c-0.3,1.9-1.1,3.7-2.2,5.3
			c-0.9,1.2-2.1,2.1-3.6,2.5c-1.6,0.5-3.3,0.7-4.9,0.7c-0.7,0-1.6,0-2.7-0.1c-1-0.1-1.9-0.3-2.9-0.6c-0.2,0.8-0.4,1.6-0.7,2.4
			c1.7,1.1,3.6,2,5.5,2.5c2,0.6,4,0.9,6.1,0.9c2.3,0,4.6-0.5,6.8-1.5c2.1-1,4-2.6,5.3-4.6c1.6-2.4,2.8-5.1,3.4-7.9
			c0.9-3.8,1.3-7.6,1.2-11.5v-6c0.5,3,1.8,5.7,3.9,7.9c1.5,1.6,3.6,2.7,5.8,3c0.7,0.1,1.4,0.1,2.1,0.2h173.4v-7.3L558.2,390.3z"/>
	</g>
	<path id="Path_13599" class="st1" d="M1569.2,1228.9v251.4h107.9v-251.4H1569.2z M1573.3,1294.1c0.8-1.6,1.6-3.4,2.3-5.3
		c2.1,0.8,4.6,1.8,6.4,2.3l1,0.3c3.9,0.7,7.6,2.4,10.6,5c6.8,7.4,4,20.5-1.2,31.2c-5.3-1.5-10.3-3.9-14.9-7c-1.6-1.1-3-2.4-4.3-3.8
		L1573.3,1294.1z M1573.3,1333.7c1.5,2.9,2.7,5.8,3.7,8.9c-1.2,0.6-2.4,1.2-3.7,1.7V1333.7z M1573.3,1363c1.3,0.6,2.6,1.2,3.9,1.9
		c-1,3-2.3,6-3.9,8.8V1363z M1573.3,1389.5c5.4-5,12-8.6,19.2-10.4c2.4,5,4.1,10.3,4.8,15.8c1.1,5.5-0.4,11.2-3.9,15.5
		c-3.1,2.5-6.7,4.2-10.6,4.8l-1.1,0.3c-2.1,0.6-4.4,1.3-6.6,2.1c-0.5-1.4-1.1-2.9-1.7-4.3L1573.3,1389.5z M1673.1,1476.3h-14l6-6
		l-6.1-6.1l-6.1,6.1l6,6H1626c2.5-0.7,4.1-3.2,3.4-5.8c-0.1-0.6-0.4-1.1-0.8-1.6l28.7-28.7c1.1,0.4,2.3,0.4,3.3,0l12.4,12.4
		L1673.1,1476.3z M1649,1354.5L1649,1354.5c-8.9,0.5-17.5,3.3-24.9,8.2c3.7,12.6,12.2,27.9,25.7,28.5h0.5c4.8-0.6,9.5-2.3,13.5-5
		c2.8-1.5,8.2-3.8,9.4-4.3v65.3l-9.7-9.7c1-2.5-0.2-5.2-2.7-6.2c-2.5-1-5.2,0.2-6.2,2.7c-0.5,1.2-0.4,2.5,0,3.6l-29.3,29.3
		c-0.1,0-0.3,0-0.4,0c-2.6,0-4.8,2.1-4.8,4.8c0,2.2,1.5,4.1,3.6,4.6h-18.5c2.5-0.7,4.1-3.3,3.4-5.8c-0.4-1.5-1.5-2.7-2.9-3.3v-14.5
		c2.4-1.1,3.5-3.9,2.5-6.3c-1.1-2.4-3.9-3.5-6.3-2.5c-2.4,1.1-3.5,3.9-2.5,6.3c0.5,1.1,1.4,2,2.5,2.5v14.7c-2.4,1.1-3.4,4-2.2,6.4
		c0.6,1.3,1.7,2.2,3.1,2.6h-29.4v-53.7c3-1.4,6.2-2.5,9.4-3.4c5-0.9,9.6-3,13.5-6.2c9.2-9.9,4.5-26.8-1.7-38.3
		c-7.7,1.7-14.9,5-21.2,9.6v-3.2c3.9-5.5,6.9-11.7,8.7-18.2c-2.8-1.7-5.7-3.2-8.7-4.4v-10.1c2.8-1.1,5.6-2.5,8.2-4
		c-1.7-6.5-4.5-12.6-8.2-18.2v-4.2c6.3,4.8,13.5,8.2,21.2,10c6.3-11.5,11.2-28.4,2.1-38.3c-3.8-3.3-8.5-5.5-13.4-6.4
		c-3.4-1-9.7-3.7-9.8-3.7v-50.7h99.8v23.6l-12.4,12.4c-1.1-0.4-2.2-0.4-3.3,0l-28.5-28.5c1.4-2.2,0.8-5.2-1.5-6.6
		c-2.2-1.4-5.2-0.8-6.6,1.5c-1.4,2.2-0.8,5.2,1.5,6.6c0.8,0.5,1.7,0.7,2.6,0.7c0.3,0,0.5,0,0.8-0.1l29,29c-1,2.4,0.1,5.2,2.6,6.3
		c2.4,1,5.2-0.1,6.3-2.6c0.2-0.6,0.4-1.2,0.4-1.8c0-0.6-0.1-1.2-0.3-1.8l9.7-9.7v119.4c-1.6-3-2.9-6.1-3.9-9.2
		c-1.1-4.9-3.5-9.5-6.9-13.2C1658.5,1355.9,1653.8,1354.3,1649,1354.5L1649,1354.5z M1649,1358.3c3.9-0.2,7.7,1.1,10.8,3.5
		c2.6,2.9,4.5,6.5,5.4,10.4l0.4,1.1c0.7,2,1.5,4.3,2.5,6.5c-2.1,0.9-4.5,2-6.2,2.9l-1,0.5c-3.2,2.2-6.9,3.5-10.7,4h-0.3
		c-5.6-0.6-10.6-3.6-13.7-8.3c-3.3-4.4-5.9-9.4-7.6-14.6C1634.8,1360.8,1641.8,1358.7,1649,1358.3L1649,1358.3z M1665.1,1239.1
		l-6.1-6.1l-6.1,6.1l6.1,6.1L1665.1,1239.1z M1619.3,1422.5c-6.1-9.1-18.5-11.5-27.6-5.4c-2.1,1.4-4,3.3-5.4,5.4
		c-1.9,0.2-3.2,2.9-1.1,3.9c5.9,2.8,11.8,5.8,17.5,8.9c5.8-3,11.6-6,17.5-8.9C1622.5,1425.4,1621.2,1422.7,1619.3,1422.5z
		 M1602.8,1431c-3.2-1.7-7-3.6-11-5.6c3.9-6.1,12-7.8,18.1-3.9c1.6,1,2.9,2.3,3.9,3.9C1609.9,1427.3,1606.2,1429.2,1602.8,1431
		L1602.8,1431z M1645.5,1311.5c1.2-0.2,2.4-0.3,3.6-0.3c5.3,0.1,10.3,1.9,14.5,5.2c0.4,0.3,0.9,0.4,1.4,0.4c1.3,0,2.7-1,2-2.6
		c-2.4-6.1-4.6-12.3-6.7-18.5c-6.3-1.8-12.6-3.6-18.9-5.5c-0.2-0.1-0.4-0.1-0.7-0.1c-1.7,0-2.3,2.4-1.3,3.7
		C1643.9,1298.6,1646.1,1305,1645.5,1311.5L1645.5,1311.5z M1657.3,1298.9c1.2,3.4,2.6,7.5,4.2,11.6c-3.7-2-7.9-3.1-12.1-3.1
		c-0.3-4.2-1.7-8.3-3.9-11.9C1649.6,1296.7,1653.6,1297.9,1657.3,1298.9L1657.3,1298.9z M1640.3,1414c-1,1.3-0.3,3.6,1.4,3.6
		c0.3,0,0.5-0.1,0.7-0.1c6.1-2.3,12.3-4.4,18.6-6.5c1.8-6.3,3.7-12.6,5.8-18.8c0.5-1.5-0.8-2.5-2-2.5c-0.6,0-1.1,0.2-1.5,0.5
		c-4.2,3.7-9.7,5.9-15.3,5.9c-0.8,0-1.6,0-2.4-0.1C1646.3,1402.5,1644.5,1409,1640.3,1414L1640.3,1414z M1649.5,1399.9
		c4.2-0.3,8.3-1.6,12-3.8c-1.3,4.2-2.5,8.2-3.6,11.8c-3.5,1.2-7.5,2.5-11.7,4.1C1648.2,1408.3,1649.4,1404.2,1649.5,1399.9
		L1649.5,1399.9z M1586.4,1284.5c6.1,9.1,18.5,11.5,27.6,5.4c2.1-1.4,4-3.3,5.4-5.4c1.9-0.2,3.2-2.9,1.1-3.9
		c-5.9-2.8-11.7-5.8-17.5-8.9c-5.8,3-11.6,6-17.5,8.9C1583.2,1281.6,1584.5,1284.3,1586.4,1284.5L1586.4,1284.5z M1602.8,1276
		c3.2,1.7,7,3.6,11,5.6c-3.9,6.1-12,7.8-18.1,3.9c-1.6-1-2.9-2.3-3.9-3.9C1595.7,1279.7,1599.5,1277.8,1602.8,1276z M1601.8,1242.2
		v14.2c-2.4,1.2-3.4,4-2.2,6.4c1.2,2.4,4,3.4,6.4,2.2c2.4-1.2,3.4-4,2.2-6.4c-0.5-1.1-1.4-1.9-2.6-2.4v-14.1
		c2.4-1.1,3.5-3.9,2.5-6.3c-1.1-2.4-3.9-3.5-6.3-2.5s-3.5,3.9-2.5,6.3C1599.8,1240.8,1600.7,1241.7,1601.8,1242.2L1601.8,1242.2z
		 M1612.2,1332c12.6-3.5,28.1-11.7,28.9-25.2c-0.3-5-2-9.9-4.8-14.1c-1.7-3.2-4.2-9.6-4.2-9.6c-3.1,1.7-6.4,3-9.8,4
		c-4.9,1-9.5,3.3-13.3,6.7C1600.3,1304,1605.6,1320.8,1612.2,1332L1612.2,1332z M1622.5,1291.1l1.1-0.4c2-0.7,4.3-1.4,6.6-2.4
		c0.9,2.1,1.9,4.5,2.8,6.2l0.5,1c2.2,3.3,3.5,7.1,3.8,11.1c-0.7,5.6-3.8,10.5-8.5,13.5c-1.6,5.9-7.6,9.3-13.4,7.8s-9.3-7.6-7.8-13.4
		c0.2-0.9,0.6-1.8,1-2.6c-1.3-5.4,0-11.2,3.4-15.6C1615.1,1293.7,1618.6,1291.9,1622.5,1291.1L1622.5,1291.1z M1630.8,1351.6
		c-3.6-1.6-7-3.5-10.2-5.7c0.5-3.9,1.6-7.7,3.2-11.2c0.4-0.7,0.3-1.6-0.2-2.2c-0.4-0.3-0.8-0.4-1.3-0.4c-0.3,0-0.6,0.1-0.9,0.2
		c-3.6,1.4-7.4,2.5-11.2,3.2c-2.4-3.1-4.3-6.6-5.6-10.2c-0.2-0.9-1.1-1.5-2-1.4c-0.7,0.1-1.2,0.7-1.4,1.4c-1.4,3.7-3.3,7.1-5.6,10.2
		l0,0c-3.9-0.5-7.7-1.6-11.2-3.2c-0.7-0.4-1.6-0.3-2.2,0.2c-0.5,0.6-0.6,1.5-0.2,2.2c1.7,3.5,2.8,7.3,3.2,11.2
		c-3.1,2.4-6.6,4.3-10.2,5.7c-0.9,0.2-1.5,1.1-1.4,2c0.1,0.7,0.7,1.2,1.4,1.4c3.7,1.4,7.1,3.3,10.2,5.7c-0.4,3.9-1.5,7.7-3.2,11.2
		c-0.4,0.7-0.3,1.6,0.2,2.2c0.4,0.3,0.8,0.4,1.2,0.4c0.3,0,0.6-0.1,0.9-0.2c3.7-1.4,7.4-2.5,11.2-3.2c2.4,3.1,4.3,6.6,5.6,10.2
		c0.2,0.9,1.1,1.5,2,1.4c0.7-0.1,1.2-0.7,1.4-1.4c1.6-3.6,3.5-7,5.6-10.2c3.9,0.5,7.7,1.6,11.2,3.2c0.3,0.1,0.6,0.2,0.9,0.2
		c0.4,0,0.9-0.1,1.2-0.4c0.5-0.6,0.6-1.5,0.2-2.2c-1.4-3.6-2.5-7.4-3.2-11.2c3.1-2.4,6.6-4.3,10.2-5.7c0.9-0.2,1.5-1.1,1.4-2
		C1632,1352.3,1631.5,1351.7,1630.8,1351.6L1630.8,1351.6z M1618.2,1357.6l-1.9,1.5l0.5,2.4c0.1,0.6,0.9,4.2,1.9,7.7
		c-2.6-0.9-5.3-1.5-8-1.9l-2.4-0.3l-1.3,2c-0.3,0.5-2.3,3.6-4.1,6.8c-1.2-2.5-2.7-4.8-4.4-7l-1.5-1.9l-2.4,0.5
		c-0.6,0.1-4.1,0.9-7.5,1.9c0.9-2.7,1.5-5.4,1.8-8.2l0.2-2.1l-1.7-1.3c-2.1-1.6-4.4-3.1-6.8-4.3c2.4-1.2,4.7-2.7,6.8-4.3l1.7-1.3
		l-0.2-2.2c-0.3-2.7-0.9-5.3-1.7-7.9c2.5,0.8,5.1,1.4,7.7,1.8l2.2,0.3l1.4-1.8c1.6-2.1,3.1-4.4,4.3-6.8c1.2,2.4,2.6,4.7,4.3,6.8
		l1.5,1.9l2.4-0.5c0.6-0.1,4.2-0.9,7.7-1.9c-0.9,2.6-1.5,5.3-1.9,8l-0.3,2.4l2,1.3c0.5,0.3,3.6,2.3,6.8,4.1
		C1622.8,1354.4,1620.4,1355.9,1618.2,1357.6L1618.2,1357.6z M1649.8,1315.1c-0.3,0-0.6,0-0.8,0c-13.5,1-21.6,16.6-24.9,29.2
		c7.4,4.4,15.7,7,24.3,7.5c5.1,0.2,10.1-1.5,14-4.8c3.3-3.8,5.6-8.4,6.6-13.3c1.1-3.4,3.9-9.8,3.9-9.8c-3.4-1-6.6-2.4-9.7-4.1
		C1659.1,1317.3,1654.5,1315.7,1649.8,1315.1L1649.8,1315.1z M1665.3,1332.6l-0.3,1c-0.8,3.9-2.6,7.5-5.1,10.6
		c-3.2,2.7-7.3,4-11.4,3.9c-6.9-0.3-13.7-2.2-19.8-5.5c1.6-5.3,4-10.3,7.2-14.8c2.9-4.8,7.9-7.9,13.4-8.7c0.2,0,0.4,0,0.6,0
		c3.7,0.4,7.3,1.7,10.5,3.7l1,0.5c1.9,1,4.1,2,6.3,3C1666.8,1328.3,1665.8,1330.8,1665.3,1332.6L1665.3,1332.6z M1608.8,1413.2
		c3.8,3.4,8.3,5.7,13.3,6.7c3.4,1.1,9.8,3.9,9.8,3.9c1.1-3.4,2.5-6.6,4.2-9.7c2.8-4.2,4.4-9.1,4.8-14.1c-0.8-13.5-16.4-21.7-29-25.2
		C1605.2,1386.3,1599.9,1403.1,1608.8,1413.2L1608.8,1413.2z M1628.4,1386.9c4.7,3,7.9,8,8.5,13.5c-0.3,3.9-1.6,7.7-3.8,11.1l-0.5,1
		c-1,1.9-2.1,4-3,6.3c-2.1-0.9-4.6-1.9-6.4-2.5l-1-0.3c-3.9-0.8-7.5-2.6-10.5-5.2c-3.4-4.4-4.7-10.2-3.4-15.6
		c-3-5.3-1.1-12,4.1-14.9c5.3-3,12-1.1,14.9,4.1C1627.8,1385.1,1628.2,1386,1628.4,1386.9L1628.4,1386.9z"/>
	<path id="Path_13600" class="st2" d="M1673.1,1228.9v251.4H1781v-251.4H1673.1z M1742.7,1232.9l5,22.5l0.1,0.5l-0.5,0.1l-5.5,1.3
		l-5.5-1.3l-0.5-0.1l0.1-0.5l4.8-22.5L1742.7,1232.9z M1677.1,1232.9h31.3l5,22.6l0.1,0.5l-0.5,0.1l-27.4,6.5l-3.7,0.9l0.8,3.7
		l6.1,27.5l0.1,0.5l-0.5,0.1l-2.3,0.5l-2.3,0.5l-0.5,2.3l-0.5,2.3l-0.1,0.5l-0.5-0.1l-4.9-1.1L1677.1,1232.9z M1677.1,1351.8
		l21.7-4.8l0.5-0.1l0.1,0.5l1.7,7l-1.6,7.1l-0.1,0.5l-0.5-0.1l-21.7-4.7L1677.1,1351.8z M1677.1,1476.3v-67.6l5.3-1.2l0.5-0.1
		l0.1,0.5l0.5,2.3l0.5,2.3l2.3,0.5l2.3,0.5l0.5,0.1l-0.1,0.5l-5.9,27.5l-0.8,3.7l3.7,0.8l27.4,6.3l0.5,0.1l-0.1,0.5l-4.9,23.1
		L1677.1,1476.3z M1741.5,1476.3l-5.1-23.1l-0.1-0.5l0.5-0.1l5.5-1.3l5.5,1.3l0.5,0.1l-0.1,0.5l-5,23.2L1741.5,1476.3z M1777,1476.3
		h-1.2l-5.1-23.2l-0.1-0.5l0.5-0.1l5.9-1.4L1777,1476.3z M1777,1447.1l-6.8,1.6l-4.2,1l0.9,4.2l4.9,22.4h-24.6l4.8-22.4l0.9-4.2
		l-4.2-1l-6.4-1.5l-6.4,1.5l-4.2,1l0.9,4.2l4.9,22.3H1713l4.8-22.3l0.9-4.2l-4.2-1l-27.4-6.3l5.9-27.5l0.9-4.2l-4.2-1l-2.3-0.5
		l-0.5-2.3l-1-4.2l-4.2,0.9l-4.4,1V1386l21.8-4.8l0.5-0.1l0.1,0.5l2.4,10.1l0.5,2.3l2.3,0.5l10.1,2.3l0.5,0.1l-0.1,0.5l-5.9,27.5
		l-0.8,3.7l3.7,0.8l11.9,2.7l0.9,0.2l0.9-0.2l11.9-2.8l3.7-0.9l-0.8-3.7l-6.1-27.5l-0.1-0.5l0.5-0.1l7-1.7l7.1,1.6l0.5,0.1l-0.1,0.5
		l-5.9,27.5l-0.8,3.7l3.7,0.8l11.9,2.7l0.9,0.2l0.9-0.2l11.9-2.8l3.7-0.9l-0.8-3.7l-6.1-27.5l-0.1-0.5l0.5-0.1l7.6-1.8L1777,1447.1z
		 M1777,1391.1l-8.5,2l-4.2,1l0.9,4.2l6.1,27.5l-11.9,2.8l-11.9-2.7l5.9-27.5l0.9-4.2l-4.2-1l-7.9-1.8l-7.9,1.9l-4.2,1l0.9,4.2
		l6.1,27.5l-11.9,2.8l-11.9-2.7l5.9-27.5l0.9-4.2l-4.2-1l-10.2-2.3l-2.4-10.1l-1-4.2l-4.2,0.9l-21,4.6v-20.9l20.9,4.5l4.2,0.9l1-4.2
		l1.8-7.9l-1.9-7.9l-1-4.2l-4.2,0.9l-20.9,4.6V1327l20.8,4.5l4.2,0.9l1-4.2l2.3-10.2l10.1-2.4l4.2-1l-0.9-4.2l-6.1-27.5l11.9-2.8
		l11.9,2.7l-5.9,27.5l-0.9,4.2l4.2,1l7.9,1.8l7.9-1.9l4.2-1l-0.9-4.2l-6.1-27.5l11.9-2.8l11.9,2.7l-5.9,27.5l-0.9,4.2l4.2,1l8.7,2
		L1777,1391.1z M1777,1313.5l-7.9-1.8l-0.5-0.1l0.1-0.5l5.9-27.5l0.8-3.7l-3.7-0.8l-11.9-2.7l-0.9-0.2l-0.9,0.2l-11.9,2.8l-3.7,0.9
		l0.8,3.7l6.1,27.5l0.1,0.5l-0.5,0.1l-7,1.7l-7.1-1.6l-0.5-0.1l0.1-0.5l5.9-27.5l0.8-3.7l-3.7-0.8l-11.9-2.7l-0.9-0.2l-0.9,0.2
		l-11.9,2.8l-3.7,0.9l0.8,3.7l6.1,27.5l0.1,0.5l-0.5,0.1l-10.1,2.4l-2.3,0.5l-0.5,2.3l-2.3,10.2l-0.1,0.5l-0.5-0.1l-21.6-4.6v-18.7
		l4.1,0.9l4.2,0.9l1-4.2l0.5-2.3l2.3-0.5l4.2-1l-0.9-4.2l-6.1-27.5l27.4-6.5l4.2-1l-0.9-4.2l-4.8-21.8h24.4l-4.7,21.7l-0.9,4.2
		l4.2,1l6.4,1.5l6.4-1.5l4.2-1l-0.9-4.2l-4.8-21.7h24.3l-4.6,21.6l-0.9,4.2l4.2,1l7.4,1.7L1777,1313.5z M1777,1257.5l-6.5-1.5
		l-0.5-0.1l0.1-0.5l4.8-22.4h2.1L1777,1257.5z M1765,1334.4l-0.6-3.1l-3.1-0.8l-1.9-0.5l-1.2-0.3l-1.2,0.2l-11.8,2.4l-2.1,0.4
		l-1.2,1.8l-0.6,1l-0.6-1l-1.1-1.9l-2.1-0.5l-11.6-3.1l-1.2-0.3l-1.2,0.2l-1.9,0.4l-3.1,0.6l-0.8,3.1l-0.5,1.9l-0.3,1.2l0.2,1.2
		l2.4,11.8l0.4,2.1l1.8,1.2l1,0.6l-1,0.6l-1.9,1.1l-0.6,2.1l-3.1,11.6l-0.3,1.2l0.2,1.2l0.4,1.9l0.6,3.1l3.1,0.8l1.9,0.5l1.2,0.3
		l1.2-0.2l11.8-2.4l2.1-0.4l1.2-1.8l0.6-1l0.6,1l1.1,1.9l2.1,0.6l11.6,3.1l1.2,0.3l1.2-0.2l1.9-0.4l3.1-0.6l0.8-3.1l0.5-1.9l0.3-1.2
		l-0.2-1.2l-2.4-11.8l-0.4-2.1l-1.8-1.2l-1-0.6l1-0.6l1.9-1.1l0.5-2.1l3.1-11.6l0.3-1.2l-0.2-1.2L1765,1334.4z M1761.6,1337.6
		l-3.1,11.6l-0.1,0.5l-0.5,0.3l-1,0.6l-5.5,3.1l5.3,3.4l1,0.6l0.5,0.3l0.1,0.5l2.4,11.8l0.1,0.3l-0.1,0.3l-0.5,1.9l-0.2,0.8
		l-0.8,0.2l-1.9,0.4l-0.3,0.1l-0.3-0.1l-11.6-3.1l-0.5-0.1l-0.3-0.5l-0.6-1l-3.1-5.5l-3.4,5.3l-0.6,1l-0.3,0.5l-0.5,0.1l-11.8,2.4
		l-0.3,0.1l-0.3-0.1l-1.9-0.5l-0.8-0.2l-0.2-0.8l-0.4-1.9l-0.1-0.3l0.1-0.3l3.1-11.6l0.1-0.5l0.5-0.3l1-0.6l5.5-3.1l-5.3-3.4l-1-0.6
		l-0.5-0.3l-0.1-0.5l-2.4-11.8l-0.1-0.3l0.1-0.3l0.5-1.9l0.2-0.8l0.8-0.2l1.9-0.4l0.3-0.1l0.3,0.1l11.6,3.1l0.5,0.1l0.3,0.5l0.6,1
		l3.1,5.5l3.4-5.3l0.6-1l0.3-0.5l0.5-0.1l11.8-2.4l0.3-0.1l0.3,0.1l1.9,0.5l0.8,0.2l0.2,0.8l0.4,1.9l0.1,0.3L1761.6,1337.6z"/>
	<path id="Path_13601" class="st3" d="M1777,1228.9v251.4h107.9v-251.4H1777z M1781,1232.9h49c-2.6,0.1-4.7,2.3-4.6,4.9
		c0,0.5,0.1,1,0.3,1.5l-26.4,26.4c-0.6-0.3-1.2-0.4-1.9-0.4c-0.5,0-0.9,0.1-1.3,0.2l-15.1-15.1L1781,1232.9z M1781,1341.8l14.6-14.6
		c1.1,0.5,2.3,0.5,3.4,0.1l26.3,26.3c-0.4,1-0.4,2.2,0,3.2l-26.3,26.3c-0.5-0.2-0.9-0.2-1.4-0.2c-0.6,0-1.3,0.1-1.9,0.4l-14.6-14.6
		L1781,1341.8z M1797.8,1476.3l5.8-5.8l-6.1-6.1l-6.1,6.1l5.8,5.8H1781v-17.1l15.1-15.1c0.4,0.1,0.9,0.2,1.3,0.2
		c0.7,0,1.3-0.1,1.9-0.4l26.5,26.5c-0.8,2.4,0.4,5.1,2.8,6L1797.8,1476.3z M1880.8,1476.3h-24.9c2.4-0.9,3.6-3.6,2.7-6l22.2-22.2
		L1880.8,1476.3z M1880.8,1414.6l-24.9,24.9c-1.1-0.4-2.4-0.4-3.5,0.1l-26.3-26.3c0.5-1.1,0.5-2.3,0.1-3.4l26.3-26.3
		c1,0.4,2.2,0.4,3.2,0l25.1,25.1L1880.8,1414.6z M1880.8,1301.4l-25.1,25.1c-0.5-0.2-1.1-0.3-1.7-0.3c-0.5,0-1.1,0.1-1.6,0.3
		l-26.3-26.3c0.4-1.1,0.4-2.3-0.1-3.3l26.2-26.2c0.5,0.2,1.1,0.3,1.7,0.3c0.6,0,1.3-0.1,1.9-0.4l25,25L1880.8,1301.4z M1880.8,1290
		l-22.3-22.3c0.2-0.5,0.3-1,0.3-1.5c0-2.6-2.1-4.8-4.8-4.8c-2.6,0-4.8,2.1-4.8,4.8c0,0.6,0.1,1.2,0.3,1.8l-26.3,26.3
		c-0.5-0.2-1.1-0.3-1.6-0.3c-2.6,0-4.8,2.1-4.8,4.8c0,2.6,2.1,4.8,4.8,4.8c0.7,0,1.3-0.1,1.9-0.4l26.1,26.1c-1,2.4,0.1,5.3,2.5,6.3
		c2.4,1,5.3-0.1,6.3-2.5c0.5-1.2,0.5-2.5,0-3.6l22.3-22.3v96.3l-22.3-22.3c1-2.4-0.1-5.2-2.6-6.3c-2.4-1-5.2,0.1-6.3,2.6
		c-0.2,0.6-0.4,1.2-0.4,1.8c0,0.6,0.1,1.2,0.3,1.7l-26.2,26.2c-0.3-0.1-0.6-0.2-0.9-0.3c-2.6-0.6-5.1,1-5.7,3.6
		c-0.6,2.6,1,5.1,3.6,5.7c0.1,0,0.1,0,0.2,0c0.9,0.2,1.8,0.1,2.6-0.2l26.5,26.4c-0.2,0.5-0.3,1-0.3,1.5c0,2.6,2.1,4.8,4.8,4.8
		c2.6,0,4.8-2.1,4.8-4.8c0-0.6-0.1-1.2-0.3-1.8l22.2-22.2v22.5l-24.9,24.9c-0.3-0.1-0.6-0.2-0.9-0.3c-0.9-0.2-1.9-0.1-2.8,0.2
		l-26.1-26.1c0.2-0.6,0.4-1.2,0.4-1.8c0-2.7-2.1-4.9-4.8-4.9c-2.7,0-4.9,2.1-4.9,4.8c0,2.7,2.1,4.9,4.8,4.9c0.6,0,1.2-0.1,1.7-0.3
		l26.2,26.2c-0.1,0.2-0.2,0.4-0.2,0.6c-0.5,2.3,0.8,4.6,2.9,5.4h-20.3c2.5-0.9,3.7-3.7,2.8-6.2c-0.9-2.5-3.7-3.7-6.2-2.8
		c-0.1,0-0.1,0.1-0.2,0.1L1802,1441c0.2-0.5,0.2-1,0.3-1.5c0-2.6-2.1-4.8-4.8-4.8c-2.6,0-4.8,2.1-4.8,4.8c0,0.7,0.2,1.5,0.5,2.1
		l-12.1,12.1v-79.4l11.9,11.9c-0.8,2.5,0.5,5.2,3,6.1c2.5,0.8,5.2-0.5,6.1-3c0.4-1.1,0.3-2.4-0.2-3.5l26-26c2.4,1,5.2-0.1,6.3-2.6
		c1-2.4-0.1-5.2-2.6-6.3c-1.2-0.5-2.4-0.5-3.6,0l-26.1-26.1c0.1-0.3,0.2-0.6,0.3-0.9c0.6-2.6-1.1-5.1-3.7-5.7
		c-2.6-0.6-5.1,1.1-5.7,3.7c-0.2,0.9-0.1,1.7,0.2,2.6l-11.9,11.9v-80.2l12.1,12.1c-1.2,2.4-0.2,5.3,2.2,6.4c2.4,1.2,5.3,0.2,6.4-2.2
		c0.6-1.1,0.6-2.5,0.2-3.7l26.5-26.5c0.2,0.1,0.5,0.2,0.8,0.2c2.6,0.6,5.1-1,5.7-3.6s-1-5.1-3.6-5.7c-0.1,0-0.1,0-0.2,0
		c-0.3,0-0.5-0.1-0.8-0.1h23.5c-2.6,0.1-4.7,2.3-4.6,4.9c0,0.5,0.1,1.1,0.3,1.6l-26.4,26.4c-2.5-0.9-5.3,0.3-6.2,2.8
		c-0.9,2.5,0.3,5.3,2.8,6.2c2.5,0.9,5.3-0.3,6.2-2.8c0.4-1.1,0.4-2.4,0-3.5l26.4-26.4c0.2,0.1,0.5,0.2,0.7,0.2
		c0.9,0.2,1.8,0.1,2.6-0.2l25.1,25.1L1880.8,1290z M1880.8,1261.8l-22.3-22.3c0.1-0.3,0.2-0.5,0.3-0.8c0.5-2.6-1.1-5.1-3.7-5.7
		c-0.3,0-0.5-0.1-0.8-0.1h26.5V1261.8z M1803.6,1239.1l-6.1-6.1l-6.1,6.1l6.1,6.1L1803.6,1239.1z M1791.3,1298.4l6.1,6.1l6.1-6.1
		l-6.1-6.1L1791.3,1298.4z M1847.9,1298.4l6.1,6.1l6.1-6.1l-6.1-6.1L1847.9,1298.4z M1803.5,1355.4l-6.1-6.1l-6.1,6.1l6.1,6.1
		L1803.5,1355.4z M1791.3,1411.7l6.1,6.1l6.1-6.1l-6.1-6.1L1791.3,1411.7z M1848,1411.7l6.1,6.1l6.1-6.1l-6.1-6.1L1848,1411.7z"/>
	<path id="Path_13602" class="st4" d="M1880.8,1228.9v251.4h107.9v-251.4H1880.8z M1884.9,1232.9h16.3c-5.6,1.5-11,3.4-16.3,5.7
		V1232.9z M1884.9,1242.8c8.4-3.7,17.2-6.5,26.2-8.3c-7.6,8.8-16.4,16.4-26.2,22.7V1242.8z M1884.9,1283c2.1-1.1,4.2-2.2,6.2-3.4
		c5.3-3.1,10.5-6.5,15.3-10.3c-1.6,12.2-1.6,24.6,0,36.8c-6.8-5.2-14-9.7-21.6-13.6L1884.9,1283z M1884.9,1318.4
		c9.8,6.3,18.7,14,26.3,22.8c-9.1-1.7-17.9-4.5-26.3-8.3V1318.4z M1884.9,1376.3c8.4-3.7,17.3-6.5,26.3-8.3
		c-7.6,8.8-16.5,16.4-26.3,22.7V1376.3z M1884.9,1416.5c7.6-3.9,14.8-8.4,21.6-13.6c-1.6,12.3-1.6,24.7,0,37
		c-6.8-5.2-14-9.7-21.6-13.6V1416.5z M1884.9,1476.3v-5.7c5.3,2.3,10.8,4.2,16.3,5.7H1884.9z M1884.9,1466.5v-14.4
		c9.8,6.3,18.6,13.9,26.2,22.6C1902.1,1473,1893.3,1470.2,1884.9,1466.5L1884.9,1466.5z M1984.7,1476.3h-17.2
		c5.9-1.6,11.6-3.6,17.2-6.1L1984.7,1476.3z M1984.7,1466.1c-8.7,3.9-17.8,6.8-27.1,8.6c7.8-9,17-16.8,27.1-23.2V1466.1z
		 M1984.7,1425.9c-7.9,4-15.4,8.7-22.5,14c1.6-12.3,1.6-24.7,0-37c7,5.3,14.5,10,22.4,14V1425.9z M1984.7,1391.3
		c-10.1-6.4-19.3-14.2-27.1-23.2c9.4,1.8,18.5,4.7,27.1,8.7V1391.3z M1984.7,1332.6c-8.7,4-17.8,6.9-27.2,8.7
		c7.8-9.1,17-17,27.2-23.4V1332.6z M1984.7,1292.2c-7.9,4-15.4,8.7-22.4,14c1.6-12.2,1.6-24.6,0-36.8c4.9,3.7,10,7.2,15.3,10.3
		c2.3,1.3,4.7,2.6,7.1,3.8L1984.7,1292.2z M1984.7,1279.1c-1.8-0.9-3.5-1.8-5.2-2.8c-6.6-3.8-12.8-8.1-18.7-12.9l-3.9-3.2l0.8,5
		c2.5,15,2.5,30.2,0,45.2l-0.8,5l3.9-3.2c7.4-6,15.4-11.3,23.8-15.6v16.8c-12.8,7.7-24.2,17.7-33.5,29.4l-3,3.8l4.8-0.7
		c10.9-1.6,21.6-4.7,31.7-9.1v35.7c-10.1-4.4-20.7-7.5-31.6-9.1l-4.8-0.7l3,3.8c9.3,11.7,20.6,21.6,33.4,29.3v16.8
		c-8.4-4.4-16.4-9.6-23.8-15.6l-3.9-3.2l0.8,5c2.5,15,2.4,30.3,0,45.3l-0.8,5l3.9-3.2c7.4-6,15.4-11.3,23.8-15.7v16.8
		c-12.8,7.7-24.1,17.6-33.4,29.3l0,0h-33.9l0,0c-9.1-11.4-20.1-21.1-32.5-28.7v-16.9c8.1,4.3,15.8,9.4,23,15.2l3.9,3.2l-0.8-5
		c-2.5-15-2.5-30.3,0-45.3l0.8-5l-3.9,3.2c-7.1,5.8-14.8,10.9-23,15.2v-16.9c12.5-7.6,23.5-17.4,32.6-28.8l3-3.8l-4.8,0.7
		c-10.6,1.6-20.9,4.5-30.8,8.8v-35c9.9,4.2,20.2,7.2,30.8,8.8l4.8,0.7l-3-3.8c-9.1-11.5-20.1-21.2-32.6-28.9V1297
		c8.1,4.3,15.8,9.4,22.9,15.2l3.9,3.2l-0.8-5c-2.4-15-2.4-30.2,0-45.2l0.8-5l-3.9,3.2c-5.9,4.8-12.1,9.1-18.7,12.9
		c-1.4,0.8-2.9,1.6-4.3,2.4v-16.9c12.4-7.6,23.4-17.4,32.5-28.8l0,0h33.9l0,0c9.3,11.7,20.6,21.6,33.4,29.3L1984.7,1279.1z
		 M1984.7,1257.8c-10.1-6.4-19.2-14.2-27.1-23.2c9.3,1.8,18.4,4.7,27.1,8.6V1257.8z M1984.7,1239c-5.6-2.4-11.3-4.5-17.2-6.1h17.2
		V1239z M1934.4,1370.6l-1.8,4.5c-10,25.1-11.5,52.8-4.5,78.9c1.2,4.6,2.7,9.1,4.5,13.5l1.8,4.6l1.8-4.6c1.7-4.4,3.2-8.9,4.5-13.5
		c7.1-26.1,5.5-53.8-4.5-78.9L1934.4,1370.6z M1936.9,1453c-0.7,2.7-1.6,5.5-2.5,8.2c-1-2.8-1.8-5.5-2.5-8.2
		c-6.4-23.6-5.5-48.6,2.5-71.7C1942.4,1404.4,1943.3,1429.4,1936.9,1453L1936.9,1453z M1936.1,1241.8l-1.8-4.6l-1.8,4.6
		c-1.7,4.4-3.2,8.9-4.5,13.5c-7.1,26.1-5.5,53.8,4.5,78.9l1.8,4.5l1.8-4.5c10-25.1,11.5-52.8,4.5-78.9
		C1939.4,1250.7,1937.9,1246.2,1936.1,1241.8L1936.1,1241.8z M1934.4,1327.9c-8.1-23.1-9-48.1-2.5-71.7c0.7-2.7,1.6-5.5,2.5-8.2
		c1,2.8,1.8,5.5,2.5,8.2C1943.3,1279.8,1942.4,1304.8,1934.4,1327.9L1934.4,1327.9z"/>
	<path id="Path_13603" class="st5" d="M1984.7,1228.9v251.4h107.9v-251.4H1984.7z M2088.6,1240.3c-2.1,0.4-4.2,0.8-6.3,1.3
		c-7.4-4.6-15.6-7.5-24.3-8.7h30.6V1240.3z M2081.5,1464c-14.9-4-28.9-10.9-41-20.5c6.4-5.3,13.2-11.3,19.8-18
		c6-6,11.5-12.1,16.5-18.1c3.7,2.4,7.7,4.4,11.9,5.9v45.2C2086.4,1460.5,2084,1462.3,2081.5,1464z M2088.6,1463.5v2
		c-0.7-0.1-1.4-0.3-2.1-0.4C2087.2,1464.6,2087.9,1464.1,2088.6,1463.5L2088.6,1463.5z M2046.4,1352.9
		c-18.4-1.1-35.3-10.8-45.4-26.2c3.9-15,10.8-29,20.4-41.2c5.3,6.4,11.3,13,17.8,19.6c6.1,6.1,12.2,11.6,18.3,16.7
		c-5.9,9.3-9.2,20.1-9.5,31.1C2047.4,1352.9,2046.9,1352.9,2046.4,1352.9L2046.4,1352.9z M2057.4,1388c-6,5-12.1,10.5-18.1,16.6
		c-6.6,6.6-12.6,13.3-17.9,19.8c-9.6-12.2-16.6-26.3-20.4-41.4c10.2-15.4,27-25.1,45.5-26.2c0.5,0,1,0,1.5,0
		C2048.3,1367.8,2051.5,1378.6,2057.4,1388L2057.4,1388z M2021.4,1279.4c-6.5-8.1-11.9-15.7-16.3-22.3c2.1-2.5,4.5-4.9,7-7
		c6.7,4.4,14.3,9.8,22.4,16.3C2029.7,1270.4,2025.4,1274.7,2021.4,1279.4L2021.4,1279.4z M2002.8,1253.8c-3.9-6.1-6.9-11.2-8.9-14.7
		c3.5,1.9,8.6,4.9,14.7,8.8C2006.6,1249.7,2004.7,1251.7,2002.8,1253.8L2002.8,1253.8z M2018.9,1282.5
		c-9.4,11.8-16.4,25.3-20.6,39.7c-10.6-19.7-9-43.8,4.2-61.9C2006.8,1266.6,2012.3,1274.2,2018.9,1282.5L2018.9,1282.5z
		 M1999.8,1331.7c8.5,11.3,20.5,19.5,34.2,23.1c-13.7,3.6-25.8,11.7-34.2,23.1C1996.7,1362.7,1996.7,1347,1999.8,1331.7
		L1999.8,1331.7z M1998.3,1387.5c4.2,14.5,11.3,28.1,20.7,39.9c-6.6,8.2-12.1,15.9-16.3,22.2
		C1989.3,1431.4,1987.6,1407.3,1998.3,1387.5L1998.3,1387.5z M2003,1456c1.8,2.1,3.8,4,5.9,5.8c-6.1,3.9-11.2,6.9-14.7,8.8
		C1996.1,1467.2,1999.1,1462.1,2003,1456L2003,1456z M2005.2,1452.7c4.4-6.6,9.8-14.3,16.3-22.3c4,4.7,8.3,9.1,13,13.1
		c-8,6.4-15.6,11.9-22.2,16.3C2009.6,1457.6,2007.3,1455.2,2005.2,1452.7L2005.2,1452.7z M2023.9,1427.3
		c5.4-6.6,11.5-13.4,18.2-20.1c5.8-5.8,11.7-11.2,17.5-16.1c3.9,5.4,8.6,10.1,13.9,14.1c-4.9,5.8-10.2,11.7-16,17.5
		c-6.7,6.7-13.5,12.8-20.1,18.2C2032.5,1436.8,2028,1432.3,2023.9,1427.3L2023.9,1427.3z M2051.8,1356.8c0.4,0,0.8,0,1.2,0
		c11.3,0.6,22.1,4.5,31.2,11.2c-7.1,4.8-15.3,10.6-23.8,17.6C2055.1,1376.9,2052.1,1366.9,2051.8,1356.8L2051.8,1356.8z
		 M2051.8,1352.9c0.3-10.1,3.3-20,8.7-28.7c8.4,6.8,16.5,12.7,23.8,17.5c-9.1,6.7-19.9,10.6-31.2,11.2
		C2052.6,1352.9,2052.2,1352.9,2051.8,1352.9L2051.8,1352.9z M2059.6,1318.5c-5.9-4.9-11.8-10.3-17.7-16.2
		c-6.7-6.7-12.7-13.4-18.1-19.9c4.1-4.9,8.7-9.5,13.6-13.7c6.6,5.4,13.3,11.4,20,18.1c5.8,5.8,11.2,11.8,16.1,17.6
		C2068.2,1308.4,2063.5,1313.2,2059.6,1318.5L2059.6,1318.5z M2037.4,1263.9c-8.2-6.6-15.9-12.1-22.2-16.3c18-13.3,42.1-15,61.9-4.5
		C2062.6,1247.3,2049.1,1254.4,2037.4,1263.9L2037.4,1263.9z M2011.8,1245.3c-6.5-4.2-11.8-7.3-15.2-9.2c-3.2-1.8-4.9-2.7-6-3.2
		h50.7C2030.6,1234.4,2020.4,1238.7,2011.8,1245.3L2011.8,1245.3z M1991,1241.7c1.9,3.4,5,8.7,9.3,15.2c-5.7,7.5-9.7,16.1-11.5,25.3
		v-44.6C1989.3,1238.6,1990,1239.9,1991,1241.7L1991,1241.7z M1988.8,1307c1.5,7.2,4.2,14.1,8.1,20.4c-4.4,18-4.4,36.8,0,54.8
		c-3.9,6.3-6.6,13.1-8.1,20.4V1307z M2000.4,1452.9c-4.2,6.5-7.3,11.8-9.2,15.1c-1.2,2.1-1.9,3.5-2.5,4.6v-45.2
		C1990.7,1436.7,1994.6,1445.4,2000.4,1452.9L2000.4,1452.9z M1996.9,1473.6c3.3-1.9,8.6-5,15.1-9.2c7.9,6.1,17.2,10.1,27,11.9h-47
		C1993,1475.8,1994.6,1474.9,1996.9,1473.6L1996.9,1473.6z M2015.4,1462.2c6.3-4.2,13.9-9.7,22.1-16.3c11.7,9.4,25.1,16.4,39.5,20.7
		C2057.2,1477.1,2033.3,1475.3,2015.4,1462.2z M2079.2,1404.4c3.4-4.2,6.5-8.3,9.4-12.2v17
		C2085.3,1407.9,2082.2,1406.3,2079.2,1404.4L2079.2,1404.4z M2076,1402.3c-5.2-3.8-9.7-8.3-13.4-13.5c8.9-7.3,17.5-13.4,24.8-18.3
		c0.4,0.4,0.8,0.8,1.2,1.1v14.1C2084.8,1390.9,2080.7,1396.5,2076,1402.3L2076,1402.3z M2087.6,1365.7c-6.6-5.1-14.1-8.8-22.2-10.9
		c8.1-2.1,15.6-5.8,22.2-10.9c0.3,0.2,0.7,0.4,1,0.6v20.5L2087.6,1365.7z M2087.4,1339.2c-8.6-5.6-16.8-11.7-24.8-18.2
		c3.7-5.2,8.2-9.8,13.4-13.5c4.7,5.8,8.9,11.3,12.6,16.6v14C2088.2,1338.4,2087.8,1338.8,2087.4,1339.2L2087.4,1339.2z
		 M2079.2,1305.3c3-1.9,6.1-3.5,9.4-4.7v16.9C2085.7,1313.5,2082.6,1309.5,2079.2,1305.3L2079.2,1305.3z M2076.7,1302.3
		c-5-6-10.6-12.1-16.6-18.1c-6.6-6.6-13.3-12.5-19.7-17.9c12.2-9.6,26.2-16.7,41.2-20.6c2.5,1.6,4.8,3.4,7,5.4v45.3
		C2084.4,1298,2080.5,1300,2076.7,1302.3L2076.7,1302.3z M2086.6,1244.6c0.7-0.1,1.3-0.3,2-0.4v1.9
		C2087.9,1245.6,2087.3,1245,2086.6,1244.6L2086.6,1244.6z M2060.5,1476.3c7.7-1.4,15-4.1,21.6-8.2c2.1,0.5,4.3,1,6.4,1.4v6.8
		L2060.5,1476.3z"/>
	<path id="Path_13604" class="st6" d="M2088.6,1228.9v251.4h107.9v-251.4H2088.6z M2092.6,1232.9h13.7c-2.6,0-4.8,2.1-4.8,4.7
		c0,0.6,0.1,1.1,0.3,1.6l-9.2,9.2V1232.9z M2092.6,1380.5l18.5,18.5l-18.5,18.5V1380.5z M2092.6,1423l21.3-21.3l13.7,13.7
		l-34.9,34.9L2092.6,1423z M2116.6,1399l11.8-11.8v23.6L2116.6,1399z M2102.9,1476.3l27.6-27.6l26.9,27.6H2102.9z M2162.8,1476.3
		c-9.3-9.6-30.8-31.5-31-31.7l-1.4-1.4l-33,33h-4.7v-20.5l37.7-37.7l58.1,58.1L2162.8,1476.3z M2192.5,1474.8l-59.4-59.4l13.7-13.7
		l45.8,45.8L2192.5,1474.8z M2132.3,1410.6v-23.2l11.6,11.6L2132.3,1410.6z M2192.5,1314.2l-10.6-10.6c0.2-0.5,0.3-1.1,0.3-1.7
		c0-0.5-0.1-1.1-0.3-1.6l10.6-10.6V1314.2z M2192.5,1284.3l-13.2,13.2c-2.4-1-5.3,0.1-6.3,2.5c-1,2.4,0.1,5.3,2.5,6.3
		c1.2,0.5,2.5,0.5,3.7,0.1l13.3,13.3v27.5l-10.1-10.1c0.2-0.5,0.3-1.1,0.3-1.7c0-2.7-2.1-4.8-4.8-4.9c-2.7,0-4.8,2.1-4.9,4.8
		c0,2.7,2.1,4.8,4.8,4.9c0.6,0,1.2-0.1,1.8-0.3l12.8,12.8v33.3l-11.7,11.7c-2.5-1.1-5.4,0-6.5,2.5c-1.1,2.5,0,5.4,2.5,6.5
		c2.5,1.1,5.4,0,6.5-2.5c0.5-1.1,0.6-2.5,0.1-3.6l9.1-9.1v50.7l-43-43l26.2-26.2l-2.7-2.7l-26.2,26.2l-13.7-13.7l28.1-28.1l-2.7-2.7
		l-26,26v-28l28.6-28.6l-2.7-2.7l-25.8,25.8V1317l28.3-28.3l-2.7-2.7l-27.4,27.5h-0.4l-27.2-27.2l-2.7,2.7l28.3,28.3v27.4
		l-25.7-25.7l-2.7,2.7l28.4,28.4v28l-25.5-25.5l-2.7,2.7l27.3,27.3l-13.7,13.7l-21.3-21.3v-121l11.8-11.8c0.3,0.1,0.6,0.2,0.9,0.3
		c2.6,0.5,5.1-1.1,5.7-3.7c0.5-2.6-1.1-5.1-3.7-5.7c-0.3-0.1-0.6-0.1-0.9-0.1h86.1L2192.5,1284.3z M2154.5,1242.6
		c0.7,0,1.3-0.1,1.9-0.4l26.8,26.8c-1.1,2.5,0,5.4,2.5,6.5c2.5,1.1,5.4,0,6.5-2.5c1.1-2.5,0-5.4-2.5-6.5c-1.2-0.5-2.5-0.6-3.6-0.1
		l-27-27c0.2-0.5,0.3-1,0.3-1.5c0-2.6-2.1-4.8-4.8-4.8c-2.6,0-4.8,2.1-4.8,4.8C2149.7,1240.5,2151.9,1242.6,2154.5,1242.6
		L2154.5,1242.6z M2124.5,1286.7l6.1,6.1l6.1-6.1l-6.1-6.1L2124.5,1286.7z M2099.2,1266.4c-2.5-1-5.3,0.3-6.2,2.8
		c-1,2.5,0.3,5.3,2.8,6.2c2.5,1,5.3-0.3,6.2-2.8c0.4-1.1,0.4-2.4,0-3.5l26.9-26.9c1.2,0.5,2.5,0.5,3.7,0l26.7,26.7
		c-0.3,0.6-0.4,1.2-0.4,1.9c0,2.7,2.1,4.9,4.8,4.9c2.7,0,4.9-2.1,4.9-4.8c0-2.7-2.1-4.9-4.8-4.9c-0.6,0-1.2,0.1-1.7,0.3l-26.9-26.9
		c0.1-0.2,0.1-0.4,0.2-0.6c0.5-2.6-1.1-5.1-3.7-5.7c-2.6-0.5-5.1,1.1-5.7,3.7c-0.2,0.9-0.1,1.7,0.2,2.6L2099.2,1266.4z"/>
</g>
</svg>
